<?xml version="1.0" standalone="no"?>
<!DOCTYPE svg PUBLIC "-//W3C//DTD SVG 20010904//EN"
 "http://www.w3.org/TR/2001/REC-SVG-20010904/DTD/svg10.dtd">
<svg version="1.0" xmlns="http://www.w3.org/2000/svg"
 width="956.000000pt" height="956.000000pt" viewBox="0 0 956.000000 956.000000"
 preserveAspectRatio="xMidYMid meet">
<metadata>
Created by potrace 1.11, written by Peter Selinger 2001-2013
</metadata>
<g transform="translate(0.000000,956.000000) scale(0.100000,-0.100000)"
fill="#000000" stroke="none">
<path d="M4145 9386 c-288 -47 -549 -163 -779 -348 l-68 -55 -42 15 c-22 8
-77 16 -121 19 -327 20 -595 -264 -556 -590 l7 -57 -53 -43 c-102 -81 -189
-216 -218 -339 -19 -82 -19 -218 0 -293 36 -143 148 -301 261 -372 29 -18 43
-33 40 -43 -3 -8 -17 -48 -31 -88 -21 -58 -26 -92 -26 -165 0 -158 57 -288
170 -389 49 -44 178 -118 206 -118 9 0 15 -22 20 -62 51 -468 306 -936 665
-1219 44 -34 80 -69 80 -76 0 -9 -14 -13 -40 -13 -84 0 -120 -36 -199 -196
l-53 -110 -547 -163 c-300 -90 -577 -178 -616 -196 -188 -86 -334 -261 -385
-461 -20 -76 -20 -119 -20 -2051 l0 -1973 2905 0 2905 0 0 1963 c0 1907 -1
1966 -19 2039 -52 201 -192 372 -376 459 -56 26 -221 77 -837 259 -156 46
-248 78 -248 86 0 7 -8 19 -19 26 -10 7 -44 65 -76 128 -78 158 -112 190 -195
190 -53 0 -52 18 3 57 73 53 223 200 300 296 217 268 356 589 397 921 8 63 17
96 25 96 27 0 153 72 202 115 69 60 129 152 154 237 31 100 24 254 -16 351
-15 37 -26 69 -24 71 2 1 24 16 49 33 60 41 149 136 185 197 53 91 77 172 82
286 6 123 -9 197 -62 305 -40 82 -93 148 -166 209 l-53 44 3 99 c1 54 -3 121
-10 148 -21 88 -77 186 -143 250 -136 133 -308 181 -500 139 l-75 -17 -48 43
c-171 151 -437 280 -705 342 -89 21 -120 22 -673 24 -435 2 -600 -1 -660 -10z"/>
</g>
</svg>
